<svg xmlns="http://www.w3.org/2000/svg" id="Layer_2" data-name="Layer 2" viewBox="0 0 732.05 482.61"><defs><style>      .cls-1 {        stroke-width: 4px;      }      .cls-1, .cls-2, .cls-3 {        stroke-miterlimit: 10;      }      .cls-1, .cls-3 {        stroke: #f57f20;      }      .cls-1, .cls-4 {        fill: #f57f20;      }      .cls-5 {        fill: #6f9b40;      }      .cls-5, .cls-4, .cls-6 {        stroke-width: 0px;      }      .cls-2 {        fill: #575757;        stroke: #575757;        stroke-width: 1.18px;      }      .cls-3 {        fill: none;        stroke-width: 6px;      }      .cls-6 {        fill: #81ae4a;      }    </style></defs><g><path class="cls-6" d="M33.17,282.45c-1.15-2.49-1.73-5.05-1.73-7.69,0-8.62,6.58-16.34,19.75-23.17,13.17-6.82,28.09-10.24,44.75-10.24,17.53,0,31.33,3.88,41.41,11.64,10.08,7.76,15.12,18.39,15.12,31.89,0,17.96-7.83,33.79-23.49,47.48-8.29,7.23-18.64,13.14-31.07,17.74-12.42,4.6-24.31,6.9-35.66,6.9s-16.38-4.09-16.38-12.28c0-2.97.94-9.1,2.8-18.39l9.34-46.91c.81-4.02,1.22-6.92,1.22-8.69,0-1.68-.57-3.21-1.72-4.6,6.37-2.39,10.8-3.59,13.29-3.59,2.97,0,4.45,1.72,4.45,5.17,0,.82-.77,5-2.3,12.57l-7.83,39.29c-1.96,10.01-2.94,16.3-2.94,18.89,0,2.87.97,4.82,2.91,5.85,1.94,1.02,5.59,1.54,10.95,1.55,17.39,0,31.94-5.3,43.67-15.88,11.73-10.58,17.6-23.7,17.61-39.36,0-12.12-4.28-21.81-12.79-29.08-8.52-7.27-19.87-10.91-34.04-10.93-11.54.01-22.3,2.79-32.29,8.34-9.99,5.55-18.33,13.38-25.03,23.48Z"></path><path class="cls-6" d="M183.29,349.82c-3.27,1.53-5.9,2.3-7.87,2.3-4.91,0-7.36-2.15-7.36-6.46,0-2.2.86-7.69,2.59-16.45l3.59-17.89c2.2-10.63,3.3-18.51,3.3-23.63,0-2.78-.79-5.1-2.37-6.97,5.03-1.72,9.12-2.59,12.28-2.59,3.35,0,5.03,2.13,5.03,6.39,0,2.63-1.19,9.55-3.56,20.76l-4.06,20.9c9.04-17.57,18.14-31.23,27.31-40.98,9.16-9.74,17.47-14.62,24.94-14.62,2.63,0,4.9.75,6.82,2.26,1.91,1.51,2.87,3.34,2.87,5.49,0,3.35-3.64,7.81-10.92,13.36-1.82-3.78-4.4-5.67-7.75-5.67-6.08,0-13.82,6.47-23.24,19.39-5.83,8.05-10.9,16.34-15.21,24.89-4.3,8.55-6.45,14.64-6.45,18.28l.07,1.22Z"></path><path class="cls-6" d="M259.86,320.42c0,14,5.94,21,17.82,21,10.3,0,21.64-4.9,34.05-14.69,12.4-9.79,23.58-22.69,33.55-38.7l6.1,3.37c-9.39,17.52-21.59,32.01-36.6,43.5-15.01,11.49-29.25,17.23-42.7,17.23-8.62,0-15.43-2.78-20.44-8.33-5-5.55-7.5-13.14-7.5-22.77,0-13.89,4.54-25.76,13.61-35.63,9.07-9.86,20-14.8,32.79-14.8,6.18,0,11.12,1.56,14.83,4.67,3.71,3.11,5.57,7.28,5.57,12.49,0,8.57-5.16,16.16-15.48,22.76-10.32,6.61-22.18,9.91-35.59,9.91ZM260.44,313.52c10.01-.53,18.59-3.39,25.75-8.6,7.16-5.2,10.74-11.22,10.74-18.05,0-6.11-2.73-9.17-8.19-9.17-6.51,0-12.52,3.49-18.03,10.46-5.5,6.97-8.93,15.43-10.27,25.36Z"></path><path class="cls-6" d="M393.04,306.44c-6.14,12.69-13.7,23.48-22.69,32.36-8.99,8.88-16.81,13.32-23.48,13.32-5.08,0-9.15-2.26-12.19-6.79-3.05-4.52-4.57-10.55-4.57-18.06,0-14.99,4.54-28.18,13.62-39.58,9.08-11.4,19.59-17.09,31.53-17.09,7.24,0,15.07,2.25,23.51,6.75,1.24-4.45,6.32-6.68,15.23-6.68.57,0,1.51.02,2.8.07-2.73,4.17-4.81,9.86-6.25,17.1l-1.22,6.1c-1.39,6.8-2.08,14.75-2.08,23.85,0,10.49,2.44,15.73,7.32,15.73,5.17,0,12.25-4.32,21.23-12.97,8.98-8.64,17.8-19.65,26.47-33.01l5.6,3.88c-8.86,15.8-18.99,28.98-30.38,39.54-11.4,10.56-21.19,15.84-29.38,15.84-10.34,0-15.52-8.62-15.52-25.86,0-3.59.14-8.43.43-14.51ZM396.41,289.27c-10.07-6.56-18.44-9.84-25.1-9.84-7.24,0-13.5,4.39-18.77,13.18-5.27,8.79-7.91,19.21-7.91,31.28,0,9.67,3.17,14.51,9.5,14.51,6.85,0,19.97-15.04,39.34-45.11.24-.38,1.23-1.72,2.95-4.02Z"></path><path class="cls-6" d="M471.76,325.08c17.24-36.32,32.47-54.49,45.69-54.49,5.8,0,8.69,4.18,8.69,12.55,0,3.58-1.25,11.66-3.73,24.23l-4.31,21.72c8.38-17.61,17.12-31.76,26.22-42.45,9.1-10.69,16.95-16.04,23.56-16.04,7.28,0,10.92,4.26,10.92,12.77,0,3.06-1.08,10.07-3.23,21.02l-2.23,11.19c-1.34,6.75-2.01,11.74-2.01,15,0,5.74,2.03,8.61,6.1,8.61,9.19,0,23.32-17.05,42.38-51.15l6.03,3.37c-20.78,40.47-38.93,60.71-54.44,60.71-9.91,0-14.87-6.46-14.87-19.39,0-4.31.96-11.23,2.87-20.76l2.01-9.91c1.34-6.7,2.01-10.87,2.01-12.5,0-2.06-1.05-3.09-3.16-3.09-5.17,0-14.44,10.27-27.8,30.81-12.12,18.72-18.17,29.42-18.17,32.1,0,.29.09.79.29,1.51-.67.14-1.84.46-3.52.94-.72.24-1.8.36-3.24.36-4.45,0-6.68-2.13-6.68-6.39,0-1.29.72-5.19,2.16-11.69.53-2.34,1.05-4.86,1.58-7.53l3.02-15.21c2.2-10.95,3.3-17.53,3.3-19.73,0-3.2-1.17-4.81-3.52-4.81-5.17,0-12.78,9.26-22.84,27.76-10.01,18.37-15.01,29.32-15.01,32.86,0,1.01.38,1.98,1.15,2.94-2.63,1.16-5.05,1.73-7.26,1.73-4.98,0-7.47-2.68-7.47-8.05,0-.67.72-7.64,2.16-20.9l1.65-15.3c.57-5.36.86-10.32.86-14.87,0-5.75-1.17-9.96-3.52-12.64,5.55-2.01,9.48-3.02,11.78-3.02,4.21,0,6.32,2.49,6.32,7.46,0,1.77-.57,8.35-1.73,19.74l-2.01,20.53Z"></path><path class="cls-6" d="M650.05,330.23c.44,1.22.95,3.01,1.07,5.23.04.67.1,3.39-1.04,7.08-1.37,4.44-4.09,8.46-8.15,12.06-6.13,5.43-13.31,8.15-21.55,8.15-4.84,0-8.96-1.25-12.35-3.74-3.4-2.49-5.1-5.48-5.1-8.98,0-3.74,2.33-7.52,7-11.35,4.67-3.83,12.48-8.38,23.45-13.65l-5.75-9.27c-6.99-11.25-10.49-20.04-10.49-26.36,0-9.1,5.29-16.42,15.88-21.98,6.51,2.49,9.77,5.63,9.77,9.41,0,5.36-4.14,10.51-12.43,15.44l8.19,15.08c2.36,4.16,4.72,8.32,7.07,12.48,6.19-3.38,13.33-7.87,20.77-13.79,7.84-6.24,14.07-12.52,18.89-18.04,1.9.85,3.8,1.7,5.7,2.55-5.41,7.08-12.22,14.98-20.68,22.98-7.06,6.68-13.96,12.18-20.26,16.68ZM637.96,337c-2.24.57-22.43,5.86-22.61,12.11-.05,1.8.89,3.18.89,3.18,1.24,1.8,3.8,2.71,7.66,2.71,4.21,0,7.64-1.43,10.27-4.27,3.84-4.16,3.93-9.45,3.95-11.03.02-1.16-.08-2.1-.15-2.7Z"></path></g><path class="cls-1" d="M94.01,67.33l-20.84,104.15c-1.17,5.78-1.76,9.56-1.76,11.35s.4,3.57,1.2,5.53c-6.33,3.14-12.02,4.7-17.07,4.7-3.2,0-4.8-1.29-4.8-3.87,0-1.29.61-5.1,1.85-11.44l21.95-110.42h-12.82c-14.57,0-27.15,1.38-37.73,4.15,2.03-8.18,4.77-13.28,8.21-15.31,3.44-2.03,10.98-3.04,22.6-3.04h62.45c16.79,0,27.89-6.06,33.3-18.17,2.15,3.63,3.23,6.55,3.23,8.76,0,8-4.94,14.42-14.83,19.28-5.96,2.89-17.26,4.34-33.9,4.34h-11.05Z"></path><path class="cls-1" d="M251.47,109.65c-11.99,19.84-24.39,36.23-37.18,49.17-12.79,12.93-23.03,19.4-30.72,19.4-6.46,0-9.69-3.81-9.69-11.43,0-2.23.67-6.75,2.01-13.55-1.16,3.2-2.33,6.41-3.49,9.61-4.37,5.22-7.04,9.97-8.65,13.34-2.27,4.75-2.62,7.09-1.72,9.03.43.93,1.45,1.83,4.53,3.67,3.43,2.05,7.47,3.07,12.12,3.07,11.32,0,24.08-6.87,38.28-20.62,14.21-13.75,28.26-32.81,42.16-57.17l-7.66-4.51Z"></path><path class="cls-1" d="M264.11,156.53c21.83-46.18,41.45-69.28,58.85-69.28,13.59,0,20.39,13.53,20.39,40.59l.18,11.16c0,12.91.66,21.85,1.98,26.8,1.32,4.95,3.74,7.43,7.24,7.43,5.29,0,11.3-4.21,18.03-12.64,6.73-8.43,17.7-25.37,32.89-50.83l7.75,4.52c-13.53,25.52-25.64,44.46-36.35,56.82-10.7,12.36-20.29,18.54-28.78,18.54-7.81,0-13.3-3.78-16.47-11.35-3.17-7.56-4.75-20.66-4.75-39.3l-.09-7.93c0-10.08-.65-17.17-1.94-21.26-1.29-4.09-3.54-6.13-6.73-6.13-8.12,0-21.19,16.21-39.2,48.61-4.43,7.93-7.29,13.04-8.58,15.31-4.74,8.24-7.1,14.21-7.1,17.9,0,1.48.4,2.89,1.2,4.24-3.57,1.48-6.58,2.21-9.04,2.21-6.21,0-9.32-3.44-9.32-10.33,0-1.97.8-10.82,2.4-26.57l2.03-20.02c.92-8.49,1.38-15.07,1.38-19.74,0-6.52-1.48-11.65-4.43-15.4,1.29-.43,3.44-1.17,6.46-2.21,3.81-1.35,6.86-2.03,9.13-2.03,4.8,0,7.2,3.5,7.2,10.52,0,3.69-.46,10.02-1.38,19-.18,1.97-.37,3.84-.55,5.63l-2.4,25.74Z"></path><path class="cls-1" d="M424.62,189.1c-2.65-16.48-7.33-32.79-14.07-48.94-6.73-16.14-14.01-28.46-21.82-36.95,4.55-3.81,9.22-5.72,14.02-5.72,4.12,0,7.55,1.86,10.29,5.58,2.73,3.72,6.16,11.21,10.29,22.46,6.46,17.65,11.28,33.64,14.48,47.97,20.79-32.9,32.04-61.65,33.76-86.25,10.76,1.6,16.14,5.2,16.14,10.79,0,5.9-4.84,18.05-14.53,36.44-9.69,18.39-20.13,35.24-31.32,50.55-12.91,17.65-25.74,31.56-38.47,41.74-12.73,10.18-23.68,15.27-32.84,15.27-8.24,0-12.36-3.48-12.36-10.42,0-2.83.74-6.15,2.21-9.96,3.38,2.09,7.56,3.14,12.55,3.14,18.02,0,35.24-11.9,51.66-35.7Z"></path><g><path class="cls-4" d="M161.34,179.58c-.75-.4,17.29-23.18,10.78-47.33-.99-3.66-4.59-17.03-15.31-19.84-5.9-1.55-14.16.04-16.71,5-5.73,11.15,18.8,32.36,17.65,33.43-1.26,1.17-36.52-18.91-31.86-43.11,2.25-11.68,13.46-22.65,26.24-23.74,16.23-1.39,28.98,13.94,33.58,25.62,12.7,32.21-23.36,70.51-24.37,69.98Z"></path><path class="cls-4" d="M165.23,153.86c-.43-.17-3.55,15.35-15.88,21.15-1.87.88-8.7,4.09-13.64.62-2.72-1.91-4.97-5.9-3.81-8.71,2.62-6.31,20.08-3.58,20.11-4.43.04-.94-20.72-8.53-29.15,1.93-4.06,5.05-4.68,13.57-.63,19.27,5.14,7.24,16,7.14,22.48,4.94,17.86-6.06,21.09-34.54,20.52-34.77Z"></path></g><g><circle class="cls-4" cx="194.72" cy="69.73" r="20.6"></circle><g><circle class="cls-4" cx="206.88" cy="25.61" r="4.32"></circle><path class="cls-3" d="M185.38,73.1c3.69-2.05,11.3-6.94,16.83-16.37,7.37-12.58,6.15-24.94,5.61-28.86"></path></g><g><circle class="cls-4" cx="233.44" cy="45.72" r="4.32"></circle><path class="cls-3" d="M194.75,80.65c.83-4.13,3.17-12.88,10.47-21.01,9.74-10.85,21.88-13.45,25.79-14.12"></path></g></g><path class="cls-5" d="M690.6,290.79"></path><g><path class="cls-2" d="M80.13,454.98c-.59-.79-.79-2.03-.52-3.01.13-.26.26-3.01.39-6.03.13-3.08.33-7.86.52-10.75.92-14.94.79-23.65-.52-29.62-.85-3.87-2.49-6.55-4.32-7.34-.98-.46-1.83-.2-3.01.92-3.87,3.54-6.81,12.06-8.45,24.37-1.18,9.11-1.64,19.59-1.18,27.58.2,2.62.2,3.08-.07,3.93-.33,1.11-1.18,1.9-2.36,2.23q-.92.33-1.83.07c-1.11-.26-2.03-1.31-2.56-2.82-.92-2.82-1.7-7.08-2.49-13.43-.92-7.08-.98-9.11-.98-17.49,0-9.96.26-14.28,1.57-22.54.66-4.13,1.11-6.16,1.57-6.88,1.11-1.64,3.41-1.83,4.91-.59,1.11.98,1.31,2.03.72,4.32-.39,1.44-.85,4.59-1.31,8.19-.33,2.42-.59,5.57-.46,5.24,0-.07.39-1.38.85-2.82,1.77-6.03,4.06-10.42,6.95-13.43,2.42-2.42,4.46-3.34,7.27-3.41,2.62,0,4.46.85,6.62,2.88,4.13,3.93,5.9,10.22,6.22,22.28.13,4.19-.07,10.16-.59,18.61-.2,2.88-.39,7.8-.52,10.88-.2,5.63-.33,7.08-.79,8.12-.98,2.29-4.19,2.62-5.63.52Z"></path><path class="cls-2" d="M161.12,451.18c.33-.2,1.57-1.97,2.23-3.41,2.75-5.9,4.98-17.3,5.77-29.75.59-8.71.46-14.81-.2-19.46-.39-2.69-.46-3.54-.07-4.26.39-.79.72-1.18,1.7-1.57,1.77-.85,3.93-.07,4.72,1.77.07.26.39,1.83.59,3.54,1.7,12.12-.39,35.32-4.26,47.37-1.83,5.77-4.26,9.83-6.81,11.27-1.7.98-3.93,1.31-5.77.85-5.96-1.44-10.68-9.3-12.65-20.97-1.64-10.16-1.97-18.67-1.11-29.42.92-11.86,1.18-13.3,2.62-14.35,1.7-1.38,3.93-1.05,5.18.66.85,1.18.92,2.36.26,3.87-.39.98-1.05,7.99-1.51,15.4-.2,3.15,0,11.21.39,14.55.72,7.47,1.97,13.5,3.41,17.1.66,1.77,1.83,3.73,2.75,4.91.92,1.18,2.29,2.03,2.75,1.9Z"></path><path class="cls-2" d="M250.62,450.07c0,.26.13,1.57.26,2.88.26,1.97.26,2.56.07,3.08-.46,1.64-2.29,2.62-4.06,2.1-1.57-.46-2.16-1.57-2.56-4.91-.52-4.39-.39-4-.98-4.19-.79-.26-1.7-1.05-2.16-1.83-.26-.52-.39-.98-.39-1.7,0-1.31.46-2.16,1.77-3.47l.92-.98-.07-10.61c-.07-12.78.2-21.95.85-27.65.07-.92.13-1.7.07-1.7-.13-.13-2.03.92-2.36,1.31-.33.59-2.36,1.7-3.28,1.83-.98.13-1.9-.13-2.62-.79-.79-.72-1.11-1.38-1.11-2.42,0-1.57.98-2.82,3.41-4.26,1.25-.72,4.39-2.03,5.96-2.49.66-.2,1.25-.52,1.77-.98.98-.92,2.03-1.18,3.28-.79.79.2,1.11.2,2.88,0,2.42-.33,5.37-.33,7.4,0,7.27,1.11,11.92,6.16,12.38,13.3.66,9.3-7.27,23.85-19.2,35.38l-2.1,1.97.72-.07c4.65-.52,17.3-2.75,20.31-3.6,2.03-.59,3.21-.39,4.19.66.92,1.05,1.11,2.42.33,3.73-.72,1.25-1.83,1.64-8.26,2.88-7.47,1.51-12.06,2.23-16.45,2.69q-.98.13-.98.66ZM250.88,433.95c.52-.52,1.9-2.1,3.01-3.47,6.16-7.4,10.35-15.14,11.47-21.23,1.18-6.68-2.29-10.68-9.24-10.68-1.64,0-4.32.26-4.65.46-.26.2-.39.98-.72,5.18-.52,5.44-.66,9.11-.72,19.92l-.13,10.81.98-.98Z"></path><path class="cls-2" d="M358.66,418.03c1.64-3.6,2.69-11.01,1.97-13.83-.72-3.34-3.01-5.31-6.22-5.5-4.32-.26-8.19,2.88-10.94,8.71-2.16,4.59-3.08,8.98-2.69,12.84.39,4.26,2.16,7.01,5.83,8.85.79.52,3.34,1.57,5.63,2.49,5.11,2.03,6.29,2.69,8.19,4.59,2.23,2.23,2.88,4.06,2.75,7.21-.13,2.95-1.11,5.37-3.21,7.99-1.83,2.36-4.85,4.65-6.95,5.44-1.18.46-3.01.59-4.06.26-1.05-.26-1.83-.79-2.75-1.77-1.05-1.11-1.7-2.49-2.29-4.98-.46-1.64-.52-2.36-.59-4.13,0-1.83.07-2.16.39-2.95.98-2.16,3.28-2.88,5.05-1.57.85.66,1.24,1.51,1.24,2.69-.13,2.16-.07,3.14.26,4.46.52,1.97.46,1.9,1.64,1.11,2.75-1.77,4.78-4.78,4.78-7.14,0-2.03-1.18-2.88-7.6-5.37-5.37-2.1-7.47-3.28-9.89-5.57-3.01-2.88-4.59-6.42-4.98-11.33-.46-4.39.46-9.37,2.56-14.35,3.01-7.14,7.47-11.73,13.17-13.5,1.31-.39,1.7-.39,4.06-.46,2.1,0,2.75.07,3.6.33,2.56.79,5.04,2.42,6.68,4.32,3.08,3.73,3.8,8.71,2.49,16.45-.66,3.67-1.83,7.4-2.82,8.65-1.25,1.7-4.06,1.64-5.18-.13-.72-1.05-.72-2.29-.13-3.8Z"></path><path class="cls-2" d="M434.74,392.8c.72.2,1.77.26,8.98.2,5.24,0,9.17.13,10.88.2,2.49.26,2.75.26,3.54.72,1.9,1.18,2.1,3.73.33,5.24-.79.66-1.57.79-3.21.52-1.57-.26-18.15-.46-18.41-.2-.46.39-3.28,21.23-2.95,21.56,0,0,1.77,0,3.8-.07,4.06-.26,4.52-.2,5.44.59,1.44,1.25,1.64,3.08.39,4.46-.85.92-1.18.98-5.9,1.24-3.01.2-4.39.33-4.46.46-.33.39-.59,7.27-.46,11.01.13,7.08,1.38,10.88,3.8,12.06.79.39,1.11.46,2.42.46,1.51,0,3.93-.46,6.09-1.05,3.28-.85,7.6-2.75,8.39-3.54.72-.79,2.29-1.05,3.54-.46,1.77.79,2.36,2.82,1.31,4.65-.52.79-1.31,1.31-3.6,2.49-3.54,1.7-6.95,2.88-10.68,3.6-2.82.66-6.68.79-8.45.26-.66-.13-1.44-.46-1.7-.59-4.52-2.23-6.68-6.42-7.53-14.28-.26-2.16-.2-8.91,0-12.25l.26-2.75-.39-.46c-1.05-1.38-.92-2.95.39-4.39.46-.46.52-.72.79-3.14.46-4.13,1.77-13.83,2.16-16.51.2-1.31.33-2.49.33-2.49-.85-.33-1.7-.85-2.1-1.38-.46-.52-.52-.72-.52-1.83,0-.98.07-1.25.46-1.77.52-.79,1.7-1.44,2.69-1.64.39,0,1.05-.26,1.51-.52,1.18-.66,1.9-.72,2.88-.39Z"></path><path class="cls-2" d="M533.22,450.07c0,.26.13,1.57.26,2.88.26,1.97.26,2.56.07,3.08-.46,1.64-2.29,2.62-4.06,2.1-1.57-.46-2.16-1.57-2.55-4.91-.52-4.39-.39-4-.98-4.19-.79-.26-1.7-1.05-2.16-1.83-.26-.52-.39-.98-.39-1.7,0-1.31.46-2.16,1.77-3.47l.92-.98-.07-10.61c-.07-12.78.2-21.95.85-27.65.07-.92.13-1.7.07-1.7-.13-.13-2.03.92-2.36,1.31-.33.59-2.36,1.7-3.28,1.83-.98.13-1.9-.13-2.62-.79-.79-.72-1.11-1.38-1.11-2.42,0-1.57.98-2.82,3.41-4.26,1.25-.72,4.39-2.03,5.96-2.49.66-.2,1.24-.52,1.77-.98.98-.92,2.03-1.18,3.28-.79.79.2,1.11.2,2.88,0,2.42-.33,5.37-.33,7.4,0,7.27,1.11,11.92,6.16,12.38,13.3.66,9.3-7.27,23.85-19.2,35.38l-2.1,1.97.72-.07c4.65-.52,17.3-2.75,20.31-3.6,2.03-.59,3.21-.39,4.19.66.92,1.05,1.11,2.42.33,3.73-.72,1.25-1.83,1.64-8.25,2.88-7.47,1.51-12.06,2.23-16.45,2.69q-.98.13-.98.66ZM533.48,433.95c.52-.52,1.9-2.1,3.01-3.47,6.16-7.4,10.35-15.14,11.47-21.23,1.18-6.68-2.29-10.68-9.24-10.68-1.64,0-4.33.26-4.65.46-.26.2-.39.98-.72,5.18-.52,5.44-.66,9.11-.72,19.92l-.13,10.81.98-.98Z"></path><path class="cls-2" d="M619.25,452.69c-.79-1.64,0-3.6,1.77-4.39,1.25-.52,2.42-.2,3.74.98,1.18,1.05,3.73,2.62,4.72,2.95,3.34.98,6.29-1.38,9.11-7.27,1.83-3.67,2.75-7.01,3.6-12.06.66-3.87.92-7.6,1.05-12.71l.07-4.65-1.11,3.8c-3.34,11.47-6.22,17.76-9.63,21.16-1.51,1.51-2.42,2.1-3.93,2.42-4.13,1.11-7.99-2.1-10.02-8.32-1.38-4.19-1.9-7.93-1.9-14.02,0-5.37.59-11.2,1.64-17.36.39-2.29,1.57-7.08,1.96-8.12.39-.98,1.9-1.97,3.15-1.97.85,0,2.16.79,2.62,1.64.66,1.05.59,1.83-.2,4.91-2.49,9.17-3.34,22.8-1.83,29.94.59,2.88,1.57,5.37,2.55,6.55l.46.52.59-.52c1.44-1.25,3.28-4.46,4.91-8.71,2.03-5.05,3.67-10.81,5.96-20.31,2.23-9.57,2.88-11.6,4.13-12.78,1.77-1.7,4.46-1.25,5.63.98.98,1.9,1.64,12.84,1.51,23.72-.2,12.06-1.51,19.98-4.46,26.93-2.75,6.62-6.36,10.75-10.81,12.38-1.64.66-4.52.79-6.29.33-2.16-.59-4.98-2.16-7.27-4.06-1.18-.92-1.31-1.11-1.7-1.96Z"></path></g><path class="cls-6" d="M520.13,66.13c-.42-1.7,1.04-3.3,2.86-3.09l8.45.95c.36.04.67.29.78.65l4.06,13.43c.13.43.56.71,1.01.64l19.08-2.72c.48-.07.83-.51.78-.99l-1.4-14.75c-.05-.52.34-.97.86-1l7.4-.39c.5-.03.94.36.96.86l.67,12.1c.03.52.49.91,1.01.86l14.39-1.43,3.21-.43c.51-.07.86-.54.78-1.05l-1.56-10.25c-.08-.5.27-.97.77-1.04l6.35-.95c.52-.08,1,.29,1.05.82l9.82,99.37c.08.68.33,1.31.71,1.84.7.98,1.84,1.61,3.11,1.64l2.87.07c.45.01.84-.31.92-.75l21.01-117.26c.45-2.53,3.01-4.2,5.63-3.67,1.11.22,2.24.45,3.2.64.46.09.77.52.73.99l-1.14,11.75-.09,1.28c-.02.26.07.51.25.69l1.81,1.91c.17.18.4.28.65.29l12.8.24,2.88.08c.46.01.86-.32.93-.78l2.36-15.23c.27-1.73,1.91-2.95,3.72-2.76l3.47.35c2.63.27,4.38,2.71,3.72,5.16l-2.84,10.42s-.78,3.17.21,3.77c4.96,3.03,10.55,2.96,13.05,2.89h.12c6.29-.18,11.48-4.81,12.11-10.81.1-.97.19-1.97.26-2.99.14-2.17.18-4.23.15-6.16-.01-.63.59-1.08,1.19-.9l6.67,2.09c1.93.61,3.48,1.84,4.46,3.41,1.47,2.34,1.17,4.65,1.05,5.33,0,.04-.01.07-.03.11-6.42,20.75-12.43,44.51-16.91,70.96-5.06,29.86-7.15,57.14-7.61,80.96,0,.51.4.92.91.93l1.38.02c.51,0,.93-.4.93-.91.04-23.13,1.95-50.98,7.98-82.03,5.61-28.83,13.49-53.8,21.44-74.36.1-.26.32-.45.59-.53.71-.21,1.96-.73,2.96-1.92.95-1.13,1.24-2.35,1.31-3.15.04-.46-.28-.87-.73-.97-1.27-.25-2.54-.52-3.83-.81-9.89-2.19-18.83-5.26-26.81-8.69-.61-.26-1.28.18-1.27.85.06,3.48-.14,7.51-.85,11.94-.26,1.62-.57,3.17-.91,4.63-.62,2.67-3.21,4.5-6.05,4.24-1.46-.13-2.44-1.48-2.07-2.84l2.92-10.71c.57-2.07.22-4.27-.94-6.08-.15-.23-.41-.38-.68-.41l-22.6-2.31c-.98,1-1.41,1.44-2.39,2.44.16,1.31.24,2.77.18,4.34-.18,4.58-1.51,8.32-2.76,10.92-.5,1.04-1.6,1.7-2.79,1.68-.99-.02-1.75-.84-1.66-1.78l1.01-10.42.14-1.19c.03-.26-.05-.51-.22-.71l-1.67-1.94c-.15-.18-.37-.29-.61-.31l-17.25-1.67c-2.86-.4-5.72-.79-8.58-1.19-.72-.1-1.26.62-.96,1.28.72,1.56,1.52,3.55,2.22,5.88,3.02,10.06,1.71,18.51.36,26.23-3.59,20.68-6.93,34.28-6.93,34.28-.98,3.98-2.13,8.61-3.45,13.79-1.14,4.47-2.29,8.91-3.44,13.32-.25.94-1.6.89-1.79-.06-4.74-23.8-7.24-41.98-7.83-50.44-.6-8.76-.13-16.35-.13-16.35.19-3.05.48-5.66.73-7.63.08-.6-.43-1.1-1.02-1.02-7.19.91-14.39,1.83-21.58,2.74-.7.09-1.06.92-.62,1.47.89,1.11,1.92,2.88,1.97,5.2.05,2.07-.7,3.67-1.23,4.55-.15.25-.41.41-.7.44l-3.81.38c-.5.05-.95-.31-1-.81l-1.08-9.94c-.05-.48-.47-.83-.95-.82l-18.6.7c-.51.02-.9.44-.88.95l.51,13.77c.02.47-.32.87-.79.94l-5.18.75c-.5.07-.99-.2-1.19-.67-1.06-2.52-4.37-10.27-5.48-12.14-.14-.24-.39-.4-.67-.43-24.86-3.31-30.83-2.03-31.41-.13-.52,1.72,3.51,3.37,7.04,7.82.08.1.14.22.17.34,4.57,16.51,9.08,40.37,7.52,69.04-1.58,29.19-8.92,53.53-16.52,71.67-.46,1.09,1.13,1.81,1.67.76,6.21-12.26,12.28-27.36,16.39-45.11,9.66-41.73,3.49-76.62-1.15-94.96Z"></path><path class="cls-6" d="M630.51,38.54"></path><path class="cls-6" d="M643.94,114.14c-.21-1.05-1.54-8.21,2.89-12.68.87-.88,3.04-3.07,6-2.79,2.38.23,3.89,2,4.52,2.73,3.08,3.58,2.19,8.38,2.04,9.19-.48,2.62-1.72,4.52-2.62,5.64-4.28-.7-8.56-1.4-12.83-2.1Z"></path><path class="cls-6" d="M554.33,116.9c.32-1.02,2.39-8-1.54-12.92-.77-.97-2.7-3.37-5.67-3.4-2.39-.03-4.08,1.58-4.78,2.24-3.44,3.24-3.07,8.1-3,8.93.2,2.65,1.24,4.68,2.01,5.88,4.33-.24,8.66-.49,12.98-.73Z"></path><path class="cls-6" d="M552.27,200.31c-2.82-17.39,1.43-31.22,9.51-34.36,1.62-.63,4.06-1.09,7.55-.22,3.39,1.27,5,4.17,5.23,4.61.89,1.65,1.06,3.16,1.15,4.1.62,6.68-1.26,17.3-1.27,17.37h0c-.06,1.06-.13,2.14-.23,3.25-.18,1.95-.41,3.82-.68,5.59-7.08-.11-14.17-.22-21.25-.33Z"></path><g><path class="cls-6" d="M630.59,38.54"></path><path class="cls-6" d="M605.18,155.86c5.49,2.41,11.19,4.26,17.05,5.48,1.43.3,2.04-1.89.6-2.19-5.67-1.18-11.21-2.92-16.51-5.25-1.33-.58-2.48,1.37-1.15,1.96h0Z"></path><path class="cls-6" d="M608.83,150.89c4.64,2.36,9.58,4.08,14.69,5.08,1.43.28,2.04-1.91.6-2.19-4.92-.96-9.68-2.58-14.15-4.85-1.3-.66-2.45,1.3-1.15,1.96h0Z"></path><path class="cls-6" d="M609.6,144.08c3.95,1.3,7.9,2.59,11.86,3.89,1.39.46,1.99-1.74.6-2.19l-11.86-3.89c-1.39-.46-1.99,1.74-.6,2.19h0Z"></path><path class="cls-6" d="M612.18,139.52c2.02.51,4.02,1.09,5.99,1.75.56.19,1.27-.22,1.4-.79.14-.63-.19-1.2-.79-1.4-1.98-.66-3.98-1.24-5.99-1.75-.58-.15-1.26.19-1.4.79s.18,1.24.79,1.4h0Z"></path><path class="cls-6" d="M611.14,148.36c.55-.1,1.15.12,1.67.29.66.22,1.32.46,1.98.69,1.32.46,2.65.93,3.97,1.39.58.2,1.24-.23,1.4-.79.17-.63-.21-1.19-.79-1.4-1.43-.5-2.85-1-4.28-1.5s-2.95-1.18-4.54-.88c-.6.11-.95.84-.79,1.4.17.63.79.91,1.4.79h0Z"></path><path class="cls-6" d="M612.09,133.87c4.92,1.26,9.85,2.52,14.77,3.79,1.42.36,2.02-1.83.6-2.19-4.92-1.26-9.85-2.52-14.77-3.79-1.42-.36-2.02,1.83-.6,2.19h0Z"></path><path class="cls-6" d="M613.45,129.81c3.17.06,6.33.3,9.47.71.61.08,1.14-.58,1.14-1.14,0-.68-.53-1.06-1.14-1.14-3.14-.41-6.3-.65-9.47-.71-1.46-.03-1.46,2.25,0,2.27h0Z"></path><path class="cls-6" d="M615.58,125.13c3.26.29,6.51.67,9.75,1.16.61.09,1.22-.15,1.4-.79.15-.54-.18-1.31-.79-1.4-3.44-.52-6.89-.93-10.36-1.24-.61-.05-1.14.56-1.14,1.14,0,.66.52,1.08,1.14,1.14h0Z"></path><path class="cls-6" d="M615.57,119.9c.49.01.97.04,1.46.08.24.02.49.04.73.07.13.01.26.03.39.05-.2-.03.1.02.14.02.97.14,1.92.35,2.86.6.57.16,1.26-.19,1.4-.79s-.18-1.23-.79-1.4c-2.01-.55-4.1-.85-6.19-.9-.59-.01-1.16.53-1.14,1.14s.5,1.12,1.14,1.14h0Z"></path><path class="cls-6" d="M615.68,115.42c2.85.28,5.68.73,8.49,1.32.6.13,1.23-.18,1.4-.79.16-.56-.19-1.27-.79-1.4-3-.63-6.04-1.1-9.09-1.4-.61-.06-1.14.57-1.14,1.14,0,.66.52,1.08,1.14,1.14h0Z"></path><path class="cls-6" d="M617.7,111.61c2.55.04,5.1.25,7.63.66.61.1,1.22-.16,1.4-.79.15-.54-.18-1.3-.79-1.4-2.72-.44-5.47-.7-8.23-.74-.61,0-1.14.53-1.14,1.14s.52,1.13,1.14,1.14h0Z"></path><path class="cls-6" d="M617.22,106.56c4.01.07,8.02.42,11.98,1.08.6.1,1.22-.16,1.4-.79.15-.54-.18-1.3-.79-1.4-4.16-.69-8.36-1.08-12.58-1.16-1.46-.03-1.46,2.25,0,2.27h0Z"></path><path class="cls-6" d="M619.92,102.63c3.48.47,6.97.93,10.45,1.4.61.08,1.14-.58,1.14-1.14,0-.68-.53-1.05-1.14-1.14-3.48-.47-6.97-.93-10.45-1.4-.61-.08-1.14.58-1.14,1.14,0,.68.53,1.05,1.14,1.14h0Z"></path><path class="cls-6" d="M620.02,98.93c3.18.33,6.33.83,9.45,1.5.6.13,1.23-.18,1.4-.79.16-.57-.19-1.27-.79-1.4-3.32-.71-6.68-1.24-10.05-1.58-.61-.06-1.14.57-1.14,1.14,0,.67.52,1.07,1.14,1.14h0Z"></path><path class="cls-6" d="M620.7,94.67c.38.03.76.06,1.15.11.09.01.18.02.26.03.05,0,.35.04.05,0,.19.02.38.05.57.08.74.12,1.48.27,2.21.45.58.14,1.26-.18,1.4-.79s-.18-1.25-.79-1.4c-1.59-.38-3.21-.63-4.84-.76-.59-.04-1.16.55-1.14,1.14.03.65.5,1.09,1.14,1.14h0Z"></path><path class="cls-6" d="M620.99,90.7c.46.02.91.05,1.36.09.21.02.42.04.63.06.1.01.21.02.31.04.07,0,.14.02.21.03-.11-.02-.12-.02-.04,0,.88.13,1.76.29,2.63.49.58.13,1.26-.18,1.4-.79.13-.58-.17-1.25-.79-1.4-1.87-.43-3.79-.7-5.71-.78-.59-.03-1.16.54-1.14,1.14.03.64.5,1.11,1.14,1.14h0Z"></path><path class="cls-6" d="M620.89,86.16c1.83.35,3.66.73,5.49,1.1.58.12,1.25-.17,1.4-.79.13-.56-.17-1.27-.79-1.4-1.83-.37-3.66-.74-5.49-1.1-.58-.11-1.25.16-1.4.79-.13.56.17,1.28.79,1.4h0Z"></path><path class="cls-6" d="M622.63,83.67c1.68,0,3.35,0,5.03,0,.59,0,1.16-.52,1.14-1.14s-.5-1.14-1.14-1.14c-1.68,0-3.35,0-5.03,0-.59,0-1.16.52-1.14,1.14s.5,1.14,1.14,1.14h0Z"></path><path class="cls-6" d="M623.79,78.55c1.26-.04,2.52,0,3.77.1.59.05,1.16-.56,1.14-1.14-.03-.66-.5-1.08-1.14-1.14-1.25-.1-2.51-.13-3.77-.1-.59.02-1.16.51-1.14,1.14s.5,1.16,1.14,1.14h0Z"></path><path class="cls-6" d="M623.6,75.65h3.29c.59,0,1.16-.52,1.14-1.14s-.5-1.14-1.14-1.14h-3.29c-.59,0-1.16.52-1.14,1.14s.5,1.14,1.14,1.14h0Z"></path><path class="cls-6" d="M625.73,71.53c.05-.04.11-.07.17-.11-.11.04-.12.04-.04.01.11-.03.22-.07.34-.09.31-.07-.21,0,.11,0,.1,0,.21-.01.31-.01.55-.01,1.11,0,1.66,0,1.12.02,2.24.08,3.35.17.59.05,1.16-.56,1.14-1.14-.03-.66-.5-1.09-1.14-1.14-1.2-.09-2.4-.15-3.6-.17-1.13-.02-2.45-.14-3.44.51-.49.33-.75,1.02-.41,1.55.32.49,1.02.76,1.55.41h0Z"></path><path class="cls-6" d="M624.85,65.6c1.07-.14,2.14-.13,3.21,0l-.3-.04c.22.03.44.07.67.11.31.06.6.05.88-.11.24-.14.46-.41.52-.68.13-.56-.17-1.28-.79-1.4-1.38-.25-2.78-.33-4.18-.15-.31.04-.57.1-.8.33-.2.2-.35.52-.33.8s.11.6.33.8c.21.19.51.37.8.33h0Z"></path><path class="cls-6" d="M625.82,62.21l2.51-.11c.3-.01.59-.12.8-.33.2-.2.35-.52.33-.8s-.11-.6-.33-.8-.5-.35-.8-.33l-2.51.11c-.3.01-.59.12-.8.33-.2.2-.35.52-.33.8s.11.6.33.8.5.35.8.33h0Z"></path><path class="cls-6" d="M627.73,55.53c.08-.04.16-.08.24-.12l-.27.11c.27-.11.54-.19.83-.23l-.3.04c.29-.04.57-.04.86,0l-.3-.04c.27.04.53.11.78.22s.65.02.88-.11c.24-.14.46-.41.52-.68.07-.29.05-.62-.11-.88l-.18-.23c-.14-.14-.31-.24-.5-.29-.22-.09-.46-.16-.69-.2-.33-.06-.67-.1-1-.08-.67.04-1.3.21-1.89.52-.53.28-.73,1.05-.41,1.55.34.53.99.71,1.55.41h0Z"></path><path class="cls-6" d="M518.67,70.25c3.8.07,7.61.14,11.41.21,1.46.03,1.46-2.25,0-2.27-3.8-.07-7.61-.14-11.41-.21-1.46-.03-1.46,2.25,0,2.27h0Z"></path><path class="cls-6" d="M521.57,74.1h7.93c.61,0,1.14-.52,1.14-1.14s-.52-1.14-1.14-1.14h-7.93c-.61,0-1.14.52-1.14,1.14s.52,1.14,1.14,1.14h0Z"></path><path class="cls-6" d="M520.21,76.85c2.69.28,5.37.7,8.02,1.24.6.12,1.23-.17,1.4-.79.15-.56-.19-1.27-.79-1.4-2.85-.59-5.73-1.03-8.63-1.32-.61-.06-1.14.57-1.14,1.14,0,.67.52,1.07,1.14,1.14h0Z"></path><path class="cls-6" d="M521.84,81.04c3.2.85,6.48,1.37,9.78,1.57.61.04,1.14-.55,1.14-1.14,0-.65-.52-1.1-1.14-1.14-3.11-.18-6.17-.69-9.18-1.49-1.41-.38-2.02,1.82-.6,2.19h0Z"></path><path class="cls-6" d="M522.41,86.54c3.73.78,7.48,1.45,11.24,2.01.61.09,1.22-.15,1.4-.79.15-.54-.18-1.31-.79-1.4-3.77-.56-7.51-1.23-11.24-2.01-.6-.12-1.23.18-1.4.79-.15.56.19,1.27.79,1.4h0Z"></path><path class="cls-6" d="M521.96,93.43c3.53.35,7.04.86,10.53,1.53.6.12,1.23-.17,1.4-.79.15-.56-.19-1.28-.79-1.4-3.68-.71-7.4-1.24-11.13-1.61-.61-.06-1.14.57-1.14,1.14,0,.66.52,1.08,1.14,1.14h0Z"></path><path class="cls-6" d="M522.92,99.51c3.16.09,6.32.18,9.48.26,1.46.04,1.46-2.23,0-2.27-3.16-.09-6.32-.18-9.48-.26-1.46-.04-1.46,2.23,0,2.27h0Z"></path><path class="cls-6" d="M523.11,106.41c4.06.07,8.12.14,12.19.22,1.46.03,1.46-2.25,0-2.27-4.06-.07-8.12-.14-12.19-.22-1.46-.03-1.46,2.25,0,2.27h0Z"></path><path class="cls-6" d="M522.61,112.22c2.15.32,4.33.2,6.41-.46.57-.18.99-.8.79-1.4-.18-.57-.79-.99-1.4-.79-.44.14-.89.26-1.34.35-.24.05-.49.09-.74.13.24-.04-.1.01-.12.01-.12.01-.25.02-.37.03-.46.04-.93.05-1.39.03-.23,0-.46-.02-.69-.04-.11,0-.21-.02-.32-.03-.07,0-.14-.02-.21-.03.13.02.12.02-.02,0-.59-.09-1.25.15-1.4.79-.12.54.17,1.3.79,1.4h0Z"></path><path class="cls-6" d="M523.5,118.99c2.95-.09,5.89-.38,8.81-.84.61-.1.94-.85.79-1.4-.18-.65-.79-.89-1.4-.79-2.72.43-5.46.68-8.21.76-.61.02-1.14.51-1.14,1.14s.52,1.16,1.14,1.14h0Z"></path><path class="cls-6" d="M524.66,122.46c1.68.06,3.35.13,5.03.19.59.02,1.16-.54,1.14-1.14-.03-.64-.5-1.11-1.14-1.14-1.68-.06-3.35-.13-5.03-.19-.59-.02-1.16.54-1.14,1.14.03.64.5,1.11,1.14,1.14h0Z"></path><path class="cls-6" d="M522.73,127.68c2-.05,4,.01,6,.19.59.05,1.16-.56,1.14-1.14-.03-.66-.5-1.08-1.14-1.14-1.99-.18-4-.25-6-.19-.59.02-1.16.51-1.14,1.14s.5,1.15,1.14,1.14h0Z"></path><path class="cls-6" d="M521.94,133.98c5.14.65,10.31.86,15.49.64,1.46-.06,1.46-2.34,0-2.27-5.17.23-10.35.01-15.49-.64-.61-.08-1.13.58-1.14,1.14,0,.68.53,1.06,1.14,1.14h0Z"></path><path class="cls-6" d="M521.85,140.01c1.65.5,3.41.72,5.13.63.59-.03,1.16-.5,1.14-1.14-.03-.59-.5-1.17-1.14-1.14-.8.04-1.6.02-2.4-.08-.05,0-.09-.01-.13-.02.15.02.16.02.03,0-.09-.01-.18-.03-.27-.04-.19-.03-.39-.07-.58-.11-.4-.09-.79-.19-1.18-.31-.57-.17-1.26.21-1.4.79s.18,1.21.79,1.4h0Z"></path><path class="cls-6" d="M519.72,146.77c2.03.31,4.03.76,6,1.36.57.17,1.26-.21,1.4-.79s-.18-1.21-.79-1.4c-1.97-.59-3.97-1.05-6-1.36-.59-.09-1.25.15-1.4.79-.12.54.17,1.3.79,1.4h0Z"></path><path class="cls-6" d="M520.66,153.27c5.12,1.29,10.29,2.35,15.51,3.15.61.09,1.21-.16,1.4-.79.15-.54-.19-1.3-.79-1.4-5.22-.81-10.39-1.86-15.51-3.15-1.42-.36-2.02,1.83-.6,2.19h0Z"></path><path class="cls-6" d="M519.32,159.2c2.99.57,5.99,1.01,9.02,1.34.61.07,1.14-.57,1.14-1.14,0-.67-.52-1.07-1.14-1.14-2.82-.31-5.62-.73-8.41-1.26-.6-.11-1.23.17-1.4.79-.15.55.19,1.28.79,1.4h0Z"></path><path class="cls-6" d="M519.88,164.3l6.63,2.17c.57.19,1.27-.21,1.4-.79.14-.62-.19-1.2-.79-1.4-2.21-.72-4.42-1.45-6.63-2.17-.57-.19-1.27.21-1.4.79-.14.62.19,1.2.79,1.4h0Z"></path><path class="cls-6" d="M519.01,168.83c2.21.94,4.41,1.87,6.62,2.81.55.23,1.24.18,1.55-.41.26-.49.18-1.31-.41-1.55-2.21-.94-4.41-1.87-6.62-2.81-.55-.23-1.24-.18-1.55.41-.26.49-.18,1.31.41,1.55h0Z"></path><path class="cls-6" d="M516.25,177.08c1.82.31,3.62.73,5.4,1.25.57.17,1.26-.2,1.4-.79s-.18-1.22-.79-1.4c-1.77-.52-3.57-.94-5.4-1.25-.58-.1-1.25.15-1.4.79-.13.55.17,1.29.79,1.4h0Z"></path><path class="cls-6" d="M515.28,181.93c2.41.41,4.79.95,7.15,1.6.57.16,1.26-.2,1.4-.79s-.18-1.23-.79-1.4c-2.35-.65-4.74-1.19-7.15-1.6-.58-.1-1.25.15-1.4.79-.13.55.17,1.29.79,1.4h0Z"></path><path class="cls-6" d="M514.09,185.96c2.16.44,4.33.79,6.51,1.08.59.08,1.16-.58,1.14-1.14-.03-.68-.5-1.05-1.14-1.14-.14-.02-.16-.02-.06,0-.06,0-.12-.02-.18-.02-.12-.02-.24-.03-.36-.05-.26-.04-.52-.07-.78-.11-.5-.08-1-.15-1.5-.24-1.02-.17-2.03-.36-3.04-.56-.58-.12-1.26.17-1.4.79-.13.57.17,1.27.79,1.4h0Z"></path><path class="cls-6" d="M512.1,189.8c1.15.74,2.43,1.3,3.74,1.68.57.16,1.26-.2,1.4-.79s-.18-1.22-.79-1.4c-.5-.14-1-.32-1.48-.52l.27.11c-.69-.29-1.36-.64-2-1.05-.5-.32-1.28-.12-1.55.41-.3.56-.13,1.21.41,1.55h0Z"></path><path class="cls-6" d="M509.77,194.26c.85.52,1.81.9,2.79,1.07.31.05.6.05.88-.11.24-.14.46-.41.52-.68.07-.29.05-.62-.11-.88-.15-.23-.39-.47-.68-.52-.53-.09-1.04-.24-1.53-.44l.27.11c-.34-.14-.67-.31-.99-.51-.25-.15-.6-.19-.88-.11s-.55.28-.68.52c-.29.56-.13,1.22.41,1.55h0Z"></path></g><path class="cls-6" d="M552.6,203.21c6.99.3,13.97.6,20.96.89,10.09,4.29,24.2,10.41,40.91,18.13,67.71,31.26,79.81,43.18,80.34,55.32.14,3.1-.44,7.55-3.85,13.04-1.89-.86-3.79-1.72-5.68-2.57,1.41-1.88,3.39-5.11,3.57-9.19.01-.28.02-.62,0-1.02-1.27-19.83-77.95-51.49-77.95-51.49-8.71-3.5-17.46-7-26.25-10.49-10.72-4.25-21.4-8.46-32.05-12.62Z"></path></svg>